<svg width="15" height="15" viewBox="0 0 15 15" fill="none" xmlns="http://www.w3.org/2000/svg">
<path d="M7.50001 0C5.06761 0 2.22971 1.4865 2.22971 5.2703C2.22971 7.8378 6.28381 13.5135 7.50001 15C8.58111 13.5135 12.7703 7.973 12.7703 5.2703C12.7703 1.4865 9.93241 0 7.50001 0Z" fill="#5553AC"/>
<g clip-path="url(#clip0)">
<path d="M5.90911 5.65909C6.4357 5.65909 6.86365 5.23114 6.86365 4.70455C6.86365 4.17795 6.4357 3.75 5.90911 3.75C5.38251 3.75 4.95456 4.17795 4.95456 4.70455C4.95456 5.23114 5.38251 5.65909 5.90911 5.65909Z" fill="white"/>
<path d="M9.72728 3.75H7.18182V5.97727H4.63637V3.11363H4V7.88636H4.63637V6.93182H10.3636V7.88636H11V5.02273C11 4.31955 10.4305 3.75 9.72728 3.75Z" fill="white"/>
</g>
<defs>
<clipPath id="clip0">
<rect width="7" height="7" fill="white" transform="translate(4 2)"/>
</clipPath>
</defs>
</svg>
