<svg width="15" height="15" viewBox="0 0 15 15" fill="none" xmlns="http://www.w3.org/2000/svg">
<path d="M7.49998 0C5.06758 0 2.22968 1.4865 2.22968 5.2703C2.22968 7.8378 6.28378 13.5135 7.49998 15C8.58108 13.5135 12.7703 7.973 12.7703 5.2703C12.7703 1.4865 9.93237 0 7.49998 0Z" fill="#F5A623"/>
<path d="M6.50022 5.70817L7.00753 5.44119L6.50022 5.17419L6.80606 4.68931L6.23322 4.71173L6.25565 4.13889L5.77076 4.44473L5.50376 3.93742L5.23677 4.44473L4.75188 4.13889L4.7743 4.71173L4.20147 4.68931L4.50731 5.17419L4 5.44119L4.50731 5.70818L4.20147 6.19307L4.7743 6.17065L4.75188 6.74347L5.23677 6.43763L5.50376 6.94495L5.77076 6.43764L6.25565 6.74347L6.23322 6.17063L6.80606 6.19305L6.50022 5.70817ZM5.50376 6.19307C5.08851 6.19307 4.75188 5.85643 4.75188 5.44119C4.75188 5.02595 5.08851 4.68931 5.50376 4.68931C5.91902 4.68931 6.25565 5.02595 6.25565 5.44119C6.25565 5.85643 5.91902 6.19307 5.50376 6.19307Z" fill="white"/>
<path d="M10.2981 8.41766C10.1596 8.51504 10.0595 8.58541 9.83273 8.58541C9.60594 8.58541 9.50586 8.51504 9.36735 8.41766C9.21378 8.30968 9.02263 8.1753 8.66612 8.1753C8.3096 8.1753 8.11847 8.30969 7.9649 8.41766C7.8264 8.51504 7.72634 8.58541 7.49958 8.58541C7.27281 8.58541 7.17275 8.51506 7.03426 8.41766C6.88068 8.30969 6.68955 8.1753 6.33306 8.1753C5.97654 8.1753 5.78542 8.30969 5.63184 8.41766C5.49335 8.51504 5.39328 8.58541 5.16652 8.58541C4.93976 8.58541 4.83971 8.51506 4.70121 8.41766C4.54764 8.30968 4.35652 8.17529 4 8.17529V8.5854C4.22675 8.5854 4.32682 8.65575 4.46532 8.75315C4.6189 8.86112 4.81003 8.99551 5.16652 8.99551C5.52304 8.99551 5.71416 8.86112 5.86773 8.75315C6.00623 8.65577 6.10629 8.5854 6.33306 8.5854C6.55982 8.5854 6.65987 8.65575 6.79836 8.75315C6.95194 8.86112 7.14307 8.99551 7.49956 8.99551C7.85605 8.99551 8.0472 8.86113 8.20078 8.75315C8.33927 8.65577 8.43934 8.5854 8.66611 8.5854C8.89288 8.5854 8.99296 8.65575 9.13147 8.75315C9.28505 8.86113 9.47619 8.99551 9.83271 8.99551C10.1892 8.99551 10.3804 8.86113 10.5339 8.75315C10.6725 8.65578 10.7725 8.5854 10.9993 8.5854V8.17529C10.6428 8.17529 10.4517 8.30967 10.2981 8.41766Z" fill="white"/>
<path d="M10.7875 3.49787C10.5619 3.01426 10.1815 2.63418 9.70414 2.4104L9.80083 2.14477L9.41542 2.00447L9.31869 2.27024C8.20437 1.97531 7.02527 2.57587 6.62352 3.67967L6.54074 3.90712L6.77871 3.95139C7.16329 4.02294 7.53095 4.15676 7.8715 4.34915L7.91938 4.37619L7.97435 4.37566C7.98127 4.37559 7.98819 4.37556 7.99509 4.37556C8.17611 4.37556 8.35498 4.39871 8.52775 4.44333L7.57217 7.06873C7.548 7.06843 7.52385 7.06799 7.49965 7.06799C6.86603 7.06799 6.24376 7.17175 5.65012 7.37638C5.27612 7.50529 4.91815 7.67278 4.58008 7.87615C4.73628 7.94113 4.85137 8.02194 4.93705 8.08218C5.05696 8.16651 5.0695 8.17532 5.1665 8.17532C5.26352 8.17532 5.27604 8.1665 5.39592 8.08221C5.5646 7.96361 5.84681 7.7652 6.33304 7.7652C6.81926 7.7652 7.10148 7.96363 7.27009 8.08218C7.39001 8.16651 7.40254 8.17532 7.49955 8.17532C7.59656 8.17532 7.60908 8.1665 7.72895 8.08221C7.89764 7.96362 8.17986 7.7652 8.66609 7.7652C9.15239 7.7652 9.4346 7.96365 9.60323 8.0822C9.72313 8.1665 9.73567 8.17532 9.8327 8.17532C9.92973 8.17532 9.94226 8.1665 10.0621 8.08221C10.1478 8.02195 10.263 7.94112 10.4192 7.87612C10.0811 7.67275 9.72316 7.50526 9.34915 7.37635C8.9129 7.22597 8.46115 7.13031 8.00084 7.09003L8.91313 4.58356C9.08032 4.66338 9.23764 4.76521 9.38056 4.8875L9.42234 4.92325L9.4764 4.9333C9.86097 5.00485 10.2286 5.13867 10.5692 5.33106L10.78 5.45011L10.8628 5.22264C11.0688 4.65646 11.0421 4.04392 10.7875 3.49787Z" fill="white"/>
</svg>
