<svg width="15" height="15" viewBox="0 0 15 15" fill="none" xmlns="http://www.w3.org/2000/svg">
<path d="M7.49998 0C5.06758 0 2.22968 1.4865 2.22968 5.2703C2.22968 7.8378 6.28378 13.5135 7.49998 15C8.58108 13.5135 12.7703 7.973 12.7703 5.2703C12.7703 1.4865 9.93237 0 7.49998 0Z" fill="#D70009"/>
<path d="M10.6789 8.3604H4.31812C4.14238 8.3604 4 8.50278 4 8.67867C4 8.85426 4.14238 8.99664 4.31812 8.99664H10.6787C10.8545 8.99664 10.9969 8.85426 10.9969 8.67867C10.9967 8.50278 10.8543 8.3604 10.6789 8.3604Z" fill="white"/>
<path d="M4.71564 7.53338C4.5399 7.53338 4.39752 7.67576 4.39752 7.8515C4.39752 8.02724 4.5399 8.16977 4.71564 8.16977H10.2813C10.457 8.16977 10.5994 8.02724 10.5994 7.8515C10.5994 7.67576 10.457 7.53338 10.2813 7.53338H10.2019V4.67089H10.2813C10.3693 4.67089 10.4402 4.5997 10.4402 4.51198C10.4402 4.42426 10.369 4.35307 10.2813 4.35307H4.71564C4.62777 4.35307 4.55673 4.42426 4.55673 4.51198C4.55673 4.5997 4.62792 4.67089 4.71564 4.67089H4.79517V7.53323H4.71564V7.53338ZM9.56564 4.67089V7.53323H8.61158V4.67089H9.56564ZM7.97534 4.67089V7.53323H7.02127V4.67089H7.97534ZM5.43112 4.67089H6.38518V7.53323H5.43112V4.67089Z" fill="white"/>
<path d="M4.31813 4.06711H10.6788C10.6798 4.06711 10.681 4.06711 10.6819 4.06711C10.8578 4.06711 11 3.92473 11 3.74899C11 3.60929 10.91 3.49089 10.7851 3.448L7.6292 2.02792C7.54625 1.99069 7.45138 1.99069 7.36827 2.02792L4.18766 3.45902C4.05079 3.52068 3.97558 3.66931 4.00715 3.81586C4.03858 3.96241 4.16815 4.06711 4.31813 4.06711Z" fill="white"/>
</svg>
