<svg width="15" height="15" viewBox="0 0 15 15" fill="none" xmlns="http://www.w3.org/2000/svg">
<path d="M7.50001 0C5.06761 0 2.22971 1.4865 2.22971 5.2703C2.22971 7.8378 6.28381 13.5135 7.50001 15C8.58111 13.5135 12.7703 7.973 12.7703 5.2703C12.7703 1.4865 9.93241 0 7.50001 0Z" fill="#16C6F9"/>
<path d="M9.44093 5.29686C9.07341 5.29686 8.77625 5.59546 8.77625 5.96154C8.77625 6.04911 8.84802 6.12089 8.9356 6.12089C9.02317 6.12089 9.09495 6.04911 9.09495 5.96154C9.09495 5.7706 9.25143 5.61412 9.44236 5.61412C9.52994 5.61412 9.60172 5.54234 9.60172 5.45477C9.60028 5.3672 9.5285 5.29686 9.44093 5.29686Z" fill="white"/>
<path d="M10.5248 4.8389C10.486 4.80157 10.4444 4.76568 10.4013 4.73123L9.81274 4.23164C9.58592 4.07085 9.31603 3.96892 9.02316 3.94883L9.05475 3.98041L8.69728 3.62151H8.69441C8.59536 3.53107 8.46184 3.47508 8.31685 3.47508C8.06705 3.47508 7.85602 3.6373 7.78424 3.86269C7.71246 3.81675 7.6292 3.78947 7.53875 3.78373C7.5244 3.7823 7.50861 3.7823 7.49425 3.7823C7.39232 3.7823 7.29757 3.81244 7.21718 3.86269C7.14396 3.63874 6.93293 3.47651 6.68457 3.47651C6.53958 3.47651 6.4075 3.53107 6.30701 3.62295H6.30414L5.94667 3.98185L5.97826 3.95026C5.68539 3.97036 5.41407 4.07372 5.18868 4.23308L4.60008 4.73266C4.55701 4.76568 4.51538 4.80157 4.47662 4.84033C4.18232 5.12458 4 5.52224 4 5.96297C4 6.82433 4.70057 7.52491 5.56193 7.52491C6.35726 7.52491 7.0162 6.92626 7.11094 6.15534C7.22579 6.22138 7.3593 6.25871 7.49999 6.25871C7.64212 6.25871 7.77419 6.22138 7.88904 6.15534C7.98523 6.92482 8.64273 7.52347 9.43805 7.52347C10.2994 7.52347 11 6.8229 11 5.96154C11.0014 5.52081 10.8191 5.12315 10.5248 4.8389ZM5.56193 7.02819C4.97334 7.02819 4.49672 6.55157 4.49672 5.96297C4.49672 5.37438 4.97334 4.89776 5.56193 4.89776C6.15053 4.89776 6.62715 5.37438 6.62715 5.96297C6.62858 6.55013 6.15053 7.02819 5.56193 7.02819ZM7.50143 5.81654C7.31049 5.81654 7.15545 5.6615 7.15545 5.47056C7.15545 5.27963 7.31049 5.12458 7.50143 5.12458C7.69236 5.12458 7.84741 5.27963 7.84741 5.47056C7.84741 5.6615 7.69236 5.81654 7.50143 5.81654ZM9.44092 7.02819C8.85233 7.02819 8.37571 6.55157 8.37571 5.96297C8.37571 5.37438 8.85233 4.89776 9.44092 4.89776C10.0295 4.89776 10.5061 5.37438 10.5061 5.96297C10.5061 6.55013 10.0295 7.02819 9.44092 7.02819Z" fill="white"/>
<path d="M5.56193 5.29686C5.19442 5.29686 4.89725 5.59546 4.89725 5.96154C4.89725 6.04911 4.96903 6.12089 5.0566 6.12089C5.14417 6.12089 5.21595 6.04911 5.21595 5.96154C5.21595 5.7706 5.37243 5.61412 5.56337 5.61412C5.65094 5.61412 5.72272 5.54234 5.72272 5.45477C5.72128 5.3672 5.6495 5.29686 5.56193 5.29686Z" fill="white"/>
</svg>
