<?xml version="1.0" encoding="UTF-8"?>
<svg width="15px" height="15px" viewBox="0 0 15 15" version="1.1" xmlns="http://www.w3.org/2000/svg" xmlns:xlink="http://www.w3.org/1999/xlink">
    <!-- Generator: sketchtool 57.1 (101010) - https://sketch.com -->
    <title>1AAE7170-EE0A-4727-8D0B-C5841F183271</title>
    <desc>Created with sketchtool.</desc>
    <g id="Page-1" stroke="none" stroke-width="1" fill="none" fill-rule="evenodd">
        <g id="Plan-your-trip" transform="translate(-108.000000, -381.000000)" fill="#3CA999" fill-rule="nonzero">
            <g id="Group-2-Copy-2" transform="translate(108.000000, 380.000000)">
                <g id="Group">
                    <g id="flaticon1562646853-svg" transform="translate(0.000000, 1.000000)">
                        <path d="M7.84364761,4.59540164 L6.62962606,5.81172516 C6.18235496,6.25984435 5.73252802,6.70796354 5.28781276,7.16120409 C5.18302353,7.2687527 5.10379265,7.41215084 5.07312263,7.5529883 C4.91210504,8.29302514 4.75619911,9.03306198 4.60029318,9.77309881 L4.5133948,10.1828078 C4.47250144,10.3825409 4.52617397,10.582274 4.66163322,10.7179901 C4.76642245,10.8229781 4.91210504,10.8818737 5.06545513,10.8818737 C5.10890432,10.8818737 5.15235351,10.8767524 5.1958027,10.8690703 L5.64562964,10.7743251 C6.3612634,10.6232449 7.07945299,10.4696041 7.79508675,10.3210846 C7.96121601,10.285235 8.10178693,10.2109753 8.22191117,10.0906233 C10.2307974,8.07536725 12.2396836,6.0626719 14.2485697,4.05253724 C14.3968082,3.90401774 14.4785949,3.72733075 14.4990416,3.50967285 C14.5015974,3.47382332 14.4990416,3.43797378 14.4913741,3.40468493 C14.4785949,3.35347131 14.4683715,3.299697 14.4555924,3.24848338 C14.4274782,3.11788864 14.3968082,2.96936914 14.3354681,2.825971 L14.3354681,2.825971 C13.9597604,1.96558215 13.3361367,1.35101869 12.4824879,1.00532674 C12.3112469,0.936188351 12.1297827,0.913142221 11.9713209,0.892656772 L11.9278717,0.88753541 C11.6978466,0.859367918 11.4882681,0.936188351 11.3068038,1.12055739 C10.1566781,2.27798524 8.99888496,3.43797378 7.84364761,4.59540164 Z M11.8435292,1.50465955 C11.8486408,1.50465955 11.8511967,1.50465955 11.8563083,1.50465955 L11.8997575,1.50978092 C12.0326609,1.525145 12.155341,1.54050909 12.2524627,1.58147999 C12.9476498,1.86315491 13.4588168,2.3650484 13.7680728,3.07179638 C13.8038545,3.15373818 13.826857,3.2587261 13.8498595,3.36883539 C13.857527,3.40980629 13.8677504,3.45077719 13.8754179,3.49174808 C13.8651945,3.53784034 13.8473037,3.56856852 13.811522,3.60185737 C11.80008,5.61199203 9.79119377,7.62724805 7.78230757,9.6399434 C7.74908172,9.67323225 7.7184117,9.68859634 7.67240667,9.69883906 C6.95421708,9.84991925 6.23858332,10.0009994 5.52039373,10.1520796 L5.14213017,10.2314607 L5.21369355,9.89601151 C5.36959947,9.15853535 5.5255054,8.41849851 5.68396716,7.68102236 C5.68907883,7.65797623 5.70952551,7.62212669 5.73252802,7.59651988 C6.17724329,7.14584001 6.62195855,6.69772082 7.06922965,6.25216231 L8.2832512,5.03583879 C9.44104439,3.87585025 10.5988376,2.71586171 11.7540749,1.55331249 C11.8026358,1.5123416 11.8256383,1.50465955 11.8435292,1.50465955 Z" id="Shape"></path>
                        <path d="M1.74833374,2.67111361 L7.35139472,2.67111361 C7.56961244,2.67111361 7.74611207,2.49465754 7.74611207,2.27649367 C7.74611207,2.0583298 7.56961244,1.88187373 7.35139472,1.88187373 L1.74833374,1.88187373 C1.05838065,1.88187373 0.5,2.44332486 0.5,3.12989939 L0.5,13.6338481 C0.5,14.3236309 1.06158973,14.8818737 1.74833374,14.8818737 L12.2516663,14.8818737 C12.9416194,14.8818737 13.5,14.3204226 13.5,13.6338481 L13.5,8.25995862 C13.5,8.04179475 13.3235004,7.86533868 13.1052826,7.86533868 C12.8870649,7.86533868 12.7105653,8.04179475 12.7105653,8.25995862 L12.7105653,13.6338481 C12.7105653,13.8873031 12.5019748,14.0958421 12.2484572,14.0958421 L1.74833374,14.0958421 C1.49481609,14.0958421 1.28622562,13.8873031 1.28622562,13.6338481 L1.28622562,3.13310769 C1.28622562,2.8796526 1.49481609,2.67111361 1.74833374,2.67111361 Z" id="Path"></path>
                    </g>
                </g>
            </g>
        </g>
    </g>
</svg>