<svg width="15" height="15" viewBox="0 0 15 15" fill="none" xmlns="http://www.w3.org/2000/svg">
<path d="M7.50004 0C5.06764 0 2.22974 1.4865 2.22974 5.2703C2.22974 7.8378 6.28384 13.5135 7.50004 15C8.58114 13.5135 12.7703 7.973 12.7703 5.2703C12.7703 1.4865 9.93244 0 7.50004 0Z" fill="#00D0A2"/>
<path d="M10.8471 6.92723L9.87761 5.74038H10.3071C10.3686 5.74038 10.4246 5.70537 10.4513 5.65008C10.4782 5.59482 10.4709 5.52914 10.4329 5.48078L9.39697 4.16977H9.70576C9.76612 4.16977 9.8214 4.13593 9.8487 4.08203C9.876 4.02812 9.87059 3.96362 9.83487 3.91479L8.47838 2.06543C8.44823 2.02442 8.40029 2 8.34928 2C8.29827 2 8.25032 2.02442 8.22016 2.0654L6.86356 3.91476C6.82786 3.96359 6.82255 4.02811 6.84972 4.082C6.87705 4.13592 6.93231 4.16974 6.99268 4.16974H7.30172L7.06261 4.47245L7.345 4.8574C7.3806 4.90598 7.40042 4.96105 7.41136 5.01774C7.42749 5.10204 7.41932 5.19027 7.37888 5.27045C7.35295 5.32159 7.31714 5.36535 7.27441 5.3999L7.80008 6.06495C7.89317 6.18337 7.9109 6.34737 7.84547 6.48283C7.83004 6.51463 7.80906 6.54247 7.78627 6.56853C7.75668 6.60238 7.72327 6.63234 7.68444 6.65423L8.11683 7.18359C8.21312 7.30154 8.23317 7.46648 8.16784 7.60398C8.10255 7.74151 7.96214 7.83022 7.8101 7.83022H7.66532V8.83989C7.66532 8.92835 7.73708 8.99999 7.82555 8.99999H8.87299C8.96145 8.99999 9.0332 8.92835 9.0332 8.83989V7.18868H10.723C10.7849 7.18868 10.8412 7.15297 10.8677 7.09723C10.8943 7.04125 10.8863 6.97511 10.8471 6.92723Z" fill="white"/>
<path d="M7.95478 7.50289C7.9814 7.4469 7.97332 7.38079 7.93416 7.33287L7.22959 6.47041H7.48887C7.55026 6.47041 7.60636 6.43537 7.63307 6.38011C7.65981 6.32483 7.65265 6.25919 7.61465 6.21079L6.85653 5.25157H7.02551C7.08585 5.25157 7.14115 5.21769 7.16845 5.1638C7.19563 5.10988 7.19035 5.04539 7.15462 4.99656L6.12064 3.58697C6.10258 3.56231 6.074 3.54781 6.0436 3.54781C6.01319 3.54781 5.98462 3.56231 5.96655 3.58697L4.93255 4.99656C4.89684 5.0454 4.89156 5.10989 4.91873 5.1638C4.94603 5.2177 5.00132 5.25157 5.06169 5.25157H5.23066L4.47253 6.21079C4.43453 6.25919 4.42738 6.32483 4.45411 6.38011C4.48084 6.43537 4.53694 6.47041 4.59831 6.47041H4.8576L4.15303 7.33287C4.11386 7.38079 4.10579 7.4469 4.13241 7.50289C4.1589 7.55861 4.21522 7.59433 4.27708 7.59433H5.51287V7.83022V8.83989C5.51287 8.92835 5.58463 8.99999 5.67308 8.99999H6.41415C6.5026 8.99999 6.57436 8.92835 6.57436 8.83989V7.83022V7.59433H7.81014C7.87195 7.59434 7.92829 7.55863 7.95478 7.50289Z" fill="white"/>
</svg>
