<?xml version="1.0" encoding="UTF-8"?>
<svg width="20px" height="21px" viewBox="0 0 20 21" version="1.1" xmlns="http://www.w3.org/2000/svg" xmlns:xlink="http://www.w3.org/1999/xlink">
    <!-- Generator: sketchtool 57.1 (101010) - https://sketch.com -->
    <title>CA3DFC30-F020-4E56-BBAB-0E92D02F993F</title>
    <desc>Created with sketchtool.</desc>
    <g id="Page-1" stroke="none" stroke-width="1" fill="none" fill-rule="evenodd">
        <g id="hotel-details" transform="translate(-26.000000, -480.000000)" fill="#376CB3" fill-rule="nonzero">
            <g id="flaticon1562136883-svg" transform="translate(26.000000, 480.000000)">
                <path d="M16.8362654,13.3259409 C16.399733,12.8960573 15.873194,12.6662186 15.3151526,12.6662186 C14.7616115,12.6662186 14.2305721,12.8918011 13.7760384,13.3216846 L12.353933,14.6624104 C12.2369243,14.6028226 12.1199156,14.547491 12.0074073,14.4921595 C11.8453953,14.4155466 11.6923839,14.34319 11.5618742,14.2665771 C10.2297755,13.4663978 9.01918568,12.4236111 7.85809958,11.0743728 C7.29555786,10.4018817 6.91752983,9.83579749 6.64300947,9.26120072 C7.01203683,8.94198029 7.3540622,8.60999104 7.6870869,8.29077061 C7.81309624,8.17159498 7.93910558,8.04816308 8.06511493,7.92898746 C9.01018501,7.03517025 9.01018501,5.87746416 8.06511493,4.98364695 L6.83652382,3.82168459 C6.69701347,3.68974014 6.55300279,3.55353943 6.41799278,3.41733871 C6.14797276,3.15344982 5.86445173,2.88104839 5.57193004,2.62567204 C5.13539767,2.21706989 4.61335895,2 4.06431824,2 C3.51527752,2 2.98423814,2.21706989 2.53420477,2.62567204 C2.52970443,2.62992832 2.52970443,2.62992832 2.5252041,2.63418459 L0.995090629,4.09408602 C0.41904791,4.63888889 0.0905235474,5.30286738 0.0185182076,6.07325269 C-0.089489802,7.31608423 0.297538899,8.47379032 0.594560926,9.23140681 C1.32361499,11.0913978 2.41269576,12.8151882 4.03731623,14.6624104 C6.00846241,16.8884409 8.38013829,18.6462814 11.0893392,19.8848566 C12.124416,20.3487903 13.5060184,20.8978495 15.0496329,20.9914875 C15.1441399,20.9957437 15.2431472,21 15.3331539,21 C16.372731,21 17.2457958,20.6467294 17.9298465,19.9444444 C17.9343468,19.9359319 17.9433475,19.9316756 17.9478478,19.9231631 C18.1818652,19.6550179 18.4518852,19.4124104 18.7354062,19.1527778 C18.9289206,18.9782706 19.1269353,18.7952509 19.3204496,18.6037186 C19.7659826,18.1653226 20,17.6545699 20,17.1310484 C20,16.6032706 19.7614823,16.0967742 19.3069486,15.671147 L16.8362654,13.3259409 Z M18.4473849,17.8077957 C18.4428845,17.8077957 18.4428845,17.812052 18.4473849,17.8077957 C18.2718718,17.9865591 18.0918585,18.1482975 17.8983441,18.3270609 C17.6058225,18.5909498 17.3088004,18.8676075 17.0297797,19.1783154 C16.575246,19.6379928 16.0397063,19.8550627 15.3376542,19.8550627 C15.2701492,19.8550627 15.1981439,19.8550627 15.1306389,19.8508065 C13.7940398,19.7699373 12.5519477,19.2762097 11.6203786,18.8548387 C9.07318969,17.6886201 6.83652382,16.0329301 4.97788599,13.9345878 C3.44327218,12.1852599 2.41719609,10.5678763 1.7376457,8.8313172 C1.31911466,7.77150538 1.16610331,6.94578853 1.23360832,6.16689068 C1.27861165,5.66890681 1.48112667,5.25604839 1.85465437,4.90277778 L3.38926818,3.45138889 C3.60978453,3.25560036 3.84380188,3.14919355 4.0733189,3.14919355 C4.35683993,3.14919355 4.58635695,3.3109319 4.73036763,3.44713262 C4.73486796,3.45138889 4.7393683,3.45564516 4.74386863,3.45990143 C5.01838899,3.70250896 5.27940835,3.95362903 5.5539287,4.22177419 C5.69343905,4.35797491 5.83744973,4.49417563 5.98146041,4.63463262 L7.21005152,5.79659498 C7.6870869,6.24775986 7.6870869,6.66487455 7.21005152,7.11603943 C7.07954184,7.23947133 6.9535325,7.36290323 6.82302282,7.48207885 C6.44499478,7.84811828 6.08496809,8.18862007 5.69343905,8.52060932 C5.68443838,8.52912186 5.67543772,8.53337814 5.67093738,8.54189068 C5.28390868,8.90793011 5.35591402,9.26545699 5.43692003,9.50806452 C5.44142036,9.52083333 5.44592069,9.53360215 5.45042103,9.54637097 C5.76994472,10.2784498 6.2199781,10.9679659 6.90402883,11.7894265 L6.90852916,11.7936828 C8.15062127,13.2408154 9.46021839,14.3687276 10.9048255,15.2327509 C11.0893392,15.343414 11.2783532,15.4327957 11.4583666,15.5179211 C11.6203786,15.5945341 11.7733899,15.6668907 11.9038996,15.7435036 C11.9219009,15.7520161 11.9399023,15.7647849 11.9579036,15.7732975 C12.110915,15.8456541 12.2549256,15.8797043 12.4034367,15.8797043 C12.7769644,15.8797043 13.0109817,15.6583781 13.0874874,15.5860215 L14.6266015,14.1303763 C14.7796129,13.9856631 15.0226309,13.8111559 15.3061519,13.8111559 C15.5851726,13.8111559 15.8146896,13.9771505 15.9542,14.1218638 C15.9587003,14.1261201 15.9587003,14.1261201 15.9632006,14.1303763 L18.4428845,16.4755824 C18.9064189,16.9097222 18.9064189,17.3566308 18.4473849,17.8077957 Z" id="Shape"></path>
                <path d="M10.5447443,4.31295837 C11.8291222,4.52867374 12.9958472,5.13659888 13.9272663,6.06809708 C14.8586854,6.99959528 15.4616568,8.16641934 15.682256,9.45090633 C15.7361803,9.77447938 16.015606,10 16.3342494,10 C16.373467,10 16.4077825,9.99509738 16.4470001,9.99019476 C16.8097634,9.93136329 17.0499714,9.58817974 16.991145,9.22538571 C16.7264259,7.67125451 15.991095,6.25439672 14.8684899,5.13169626 C13.7458847,4.0089958 12.3291472,3.27360249 10.775148,3.00886089 C10.4123848,2.95002943 10.0741326,3.19025791 10.0104039,3.54814932 C9.9466752,3.90604074 10.1819811,4.25412691 10.5447443,4.31295837 Z" id="Path"></path>
                <path d="M19.9908399,9.30544986 C19.5947324,6.98137824 18.4998733,4.86656211 16.8175288,3.1836137 C15.1351844,1.50066528 13.0211272,0.405413138 10.6978896,0.00916337853 C10.3729924,-0.0487157998 10.0658978,0.173896424 10.0080394,0.498910272 C9.9546316,0.828376364 10.1727133,1.13558123 10.5020611,1.19346041 C12.5760625,1.54518773 14.4675874,2.52913376 15.9719059,4.02954015 C17.4762245,5.53439878 18.4553668,7.42660269 18.8069679,9.50134862 C18.855925,9.79519675 19.1096119,10 19.3989039,10 C19.4345091,10 19.4656636,9.99554776 19.5012688,9.99109551 C19.826166,9.94212082 20.0486983,9.63046371 19.9908399,9.30544986 Z" id="Path"></path>
            </g>
        </g>
    </g>
</svg>