<svg width="15" height="15" viewBox="0 0 15 15" fill="none" xmlns="http://www.w3.org/2000/svg">
<path d="M7.50004 0C5.06764 0 2.22974 1.4865 2.22974 5.2703C2.22974 7.8378 6.28384 13.5135 7.50004 15C8.58114 13.5135 12.7703 7.973 12.7703 5.2703C12.7703 1.4865 9.93244 0 7.50004 0Z" fill="#FE5B40"/>
<g clip-path="url(#clip0)">
<path d="M10.8179 7.95172L8.07306 5.20687L4.86618 2H4.61556L4.56439 2.13003C4.42932 2.47325 4.37162 2.82429 4.39752 3.14516C4.42705 3.51091 4.566 3.82756 4.79937 4.06093L7.30282 6.56438L7.63303 6.23418L9.94747 8.82217C10.1777 9.0524 10.574 9.06608 10.8179 8.82217C11.0579 8.58217 11.0579 8.1917 10.8179 7.95172Z" fill="white"/>
<path d="M6.14275 5.98456L4.18205 7.94526C3.94208 8.18522 3.94208 8.57571 4.18205 8.81568C4.41002 9.04364 4.80438 9.06377 5.05247 8.81568L7.01318 6.85496L6.14275 5.98456Z" fill="white"/>
<path d="M10.7027 3.16552L9.59044 4.27773L9.30028 3.98758L10.4125 2.87536L10.1224 2.58521L9.01015 3.69742L8.72001 3.40728L9.83223 2.29507L9.54209 2.00494L8.09137 3.45566C7.9139 3.63314 7.80793 3.86879 7.79294 4.11923C7.78916 4.18268 7.77477 4.24509 7.75092 4.30446L8.6933 5.24685C8.75267 5.22296 8.81509 5.20859 8.87853 5.20481C9.12897 5.18986 9.36462 5.08386 9.54209 4.90639L10.9928 3.45568L10.7027 3.16552Z" fill="white"/>
</g>
<defs>
<clipPath id="clip0">
<rect width="7" height="7" fill="white" transform="translate(4 2)"/>
</clipPath>
</defs>
</svg>
