<svg width="11" height="15" viewBox="0 0 11 15" fill="none" xmlns="http://www.w3.org/2000/svg">
<path d="M0.729706 5.2703C0.729706 3.51722 1.38042 2.34398 2.2728 1.60034C3.17987 0.844447 4.37718 0.5 5.50001 0.5C6.62283 0.5 7.82014 0.844447 8.72721 1.60034C9.61959 2.34398 10.2703 3.51722 10.2703 5.2703C10.2703 5.83797 10.0443 6.61224 9.64186 7.51885C9.2451 8.41257 8.70057 9.38348 8.11552 10.3279C7.169 11.8559 6.13492 13.2855 5.48548 14.1731C4.81174 13.2917 3.77442 11.8312 2.83653 10.2816C2.26007 9.32922 1.72749 8.3535 1.34058 7.46505C0.947434 6.56229 0.729706 5.80476 0.729706 5.2703Z" stroke="black"/>
<path d="M7.92591 3.07421C7.87637 3.02472 7.81776 3 7.75006 3H3.25005C3.1823 3 3.1237 3.02472 3.07421 3.07421C3.02475 3.12367 3 3.18227 3 3.24998V6.24998C3 6.47396 3.04359 6.69595 3.13084 6.91603C3.21805 7.13609 3.32613 7.33142 3.45506 7.50199C3.58398 7.67261 3.7376 7.83864 3.91599 8.00008C4.0944 8.16161 4.2591 8.29561 4.41012 8.40245C4.56114 8.50921 4.7187 8.61016 4.88276 8.70511C5.04682 8.8001 5.16339 8.86468 5.23238 8.89849C5.30137 8.93239 5.35672 8.95842 5.39836 8.97658C5.42964 8.99222 5.46346 9.00009 5.49997 9.00009C5.53651 9.00009 5.57029 8.99222 5.60159 8.97658C5.64322 8.95842 5.69856 8.93239 5.76753 8.89849C5.8365 8.86468 5.95312 8.80012 6.1172 8.70511C6.28116 8.61016 6.43877 8.50921 6.58977 8.40245C6.74086 8.2956 6.90553 8.1616 7.08397 8.00008C7.26226 7.83864 7.41593 7.67259 7.54485 7.50199C7.67374 7.33142 7.7818 7.13609 7.86917 6.91603C7.95645 6.69595 8 6.47396 8 6.24998V3.24998C7.99999 3.18223 7.97526 3.12368 7.92591 3.07421ZM7.25 6.24998C7.25 6.70832 6.94398 7.17705 6.33202 7.65622C6.08722 7.84888 5.80986 8.02732 5.49998 8.19138V3.74994H7.25V6.24998Z" fill="black"/>
</svg>
