<svg width="11" height="15" viewBox="0 0 11 15" fill="none" xmlns="http://www.w3.org/2000/svg">
<path d="M5.50004 0C3.06764 0 0.229736 1.4865 0.229736 5.2703C0.229736 7.8378 4.28384 13.5135 5.50004 15C6.58114 13.5135 10.7703 7.973 10.7703 5.2703C10.7703 1.4865 7.93244 0 5.50004 0Z" fill="#FC2E8F"/>
<g clip-path="url(#clip0)">
<path d="M6.47492 9.82956C6.24647 10.0568 5.87764 10.0568 5.65037 9.82956L2.43826 6.81695C2.25867 6.6485 2.04461 6.3293 2.02918 6.08358C1.98788 5.41885 2.017 4.146 2.03721 3.47116C2.04447 3.2252 2.25126 3.01901 2.49739 3.01335C3.35952 2.99331 5.18615 2.9719 5.35593 3.14185L8.89317 6.34205C9.12029 6.56933 8.91426 7.14418 8.68537 7.37263L6.47492 9.82956ZM3.66018 3.99093C3.46753 3.79872 3.15603 3.79872 2.96322 3.99093C2.77101 4.18374 2.77101 4.49508 2.96322 4.68729C3.15617 4.87966 3.46767 4.87966 3.66018 4.68729C3.85255 4.49508 3.85255 4.18358 3.66018 3.99093Z" fill="white"/>
</g>
<defs>
<clipPath id="clip0">
<rect width="7" height="7" fill="white" transform="translate(2 3)"/>
</clipPath>
</defs>
</svg>
