<svg width="11" height="15" viewBox="0 0 11 15" fill="none" xmlns="http://www.w3.org/2000/svg">
<path d="M5.50004 0C3.06764 0 0.229736 1.4865 0.229736 5.2703C0.229736 7.8378 4.28384 13.5135 5.50004 15C6.58114 13.5135 10.7703 7.973 10.7703 5.2703C10.7703 1.4865 7.93244 0 5.50004 0Z" fill="#8FE21E"/>
<g clip-path="url(#clip0)">
<path d="M8.95989 4.55595C8.92565 4.51419 8.87457 4.48981 8.82098 4.48981H8.13971C7.97159 4.04638 7.75256 3.6119 7.50361 3.4479C6.64238 2.88132 4.35804 2.88132 3.49682 3.4479C3.24768 3.61208 3.02955 4.04709 2.86054 4.48981H2.17927C2.12514 4.48981 2.07423 4.51419 2.04036 4.55595C2.0063 4.59754 1.99268 4.65256 2.00379 4.70544L2.1047 5.1944C2.12191 5.27775 2.1954 5.33726 2.28017 5.33726H2.48199C2.28716 5.56202 2.19271 5.84504 2.19145 6.12824C2.1902 6.47811 2.32301 6.79429 2.56587 7.01798C2.56856 7.02031 2.57125 7.02192 2.57376 7.02425V7.70841C2.57376 7.85664 2.69421 7.97727 2.84261 7.97727H3.47101C3.61941 7.97727 3.73986 7.85664 3.73986 7.70841V7.43346H7.26021V7.70841C7.26021 7.85664 7.38065 7.97727 7.52906 7.97727H8.15745C8.3055 7.97727 8.42631 7.85664 8.42631 7.70841V7.0377C8.68404 6.80164 8.80718 6.47686 8.80879 6.15261C8.80987 5.85974 8.71111 5.56632 8.50481 5.3369H8.72007C8.80521 5.3369 8.87869 5.27739 8.89554 5.19386L8.99663 4.70508C9.00703 4.65256 8.99394 4.59789 8.95989 4.55595ZM3.79202 3.89689C4.47849 3.44503 6.52158 3.44503 7.20769 3.89689C7.34104 3.98436 7.51257 4.338 7.66976 4.77104H3.33031C3.48714 4.33818 3.65867 3.98472 3.79202 3.89689ZM2.98797 6.19563C2.98797 5.90347 3.22492 5.66688 3.51689 5.66688C3.80922 5.66688 4.04581 5.90347 4.04581 6.19563C4.04581 6.48779 3.80922 6.72457 3.51689 6.72457C3.22492 6.72457 2.98797 6.48779 2.98797 6.19563ZM7.49016 6.72457C7.19819 6.72457 6.96124 6.48779 6.96124 6.19563C6.96124 5.90347 7.19819 5.66688 7.49016 5.66688C7.7825 5.66688 8.01908 5.90347 8.01908 6.19563C8.01908 6.48779 7.78214 6.72457 7.49016 6.72457Z" fill="white"/>
</g>
<defs>
<clipPath id="clip0">
<rect width="7" height="7" fill="white" transform="translate(2 2)"/>
</clipPath>
</defs>
</svg>
