<?xml version="1.0" encoding="UTF-8"?>
<svg width="25px" height="18px" viewBox="0 0 25 18" version="1.1" xmlns="http://www.w3.org/2000/svg" xmlns:xlink="http://www.w3.org/1999/xlink">
    <!-- Generator: sketchtool 57.1 (101010) - https://sketch.com -->
    <title>14A7F3CF-6949-4C89-B124-82F93A6C9A9E</title>
    <desc>Created with sketchtool.</desc>
    <g id="Page-1" stroke="none" stroke-width="1" fill="none" fill-rule="evenodd">
        <g id="Accomodation_No" transform="translate(-345.000000, -373.000000)" fill="#D8D8D8" fill-rule="nonzero">
            <g id="Nearby-Category" transform="translate(0.000000, 346.000000)">
                <g id="travel" transform="translate(345.000000, 27.000000)">
                    <path d="M24.8563495,5.56965712 C24.7340879,5.41792462 24.5516556,5.32935973 24.3602617,5.32935973 L21.927191,5.32935973 C21.3267648,3.71826018 20.5445463,2.13972124 19.6554289,1.54386187 C16.5796845,-0.514620624 8.42144048,-0.514620624 5.34569606,1.54386187 C4.45593857,2.14037246 3.67692069,3.72086503 3.07329384,5.32935973 L0.640223183,5.32935973 C0.446908965,5.32935973 0.265116788,5.41792462 0.144135374,5.56965712 C0.0225138465,5.7207384 -0.0261347644,5.92066062 0.0135522603,6.11276829 L0.373936049,7.8892758 C0.435386926,8.19208958 0.69783338,8.4082921 1.00060697,8.4082921 L1.72137455,8.4082921 C1.02557139,9.22491249 0.68823168,10.2531769 0.683750887,11.2820926 C0.679270094,12.5532592 1.15359405,13.701998 2.02094757,14.5147111 C2.03054927,14.5231768 2.04015097,14.5290377 2.04911256,14.5375035 L2.04911256,17.0231814 C2.04911256,17.561734 2.4792687,18 3.00928251,18 L5.25351975,18 C5.78353356,18 6.2136897,17.561734 6.2136897,17.0231814 L6.2136897,16.0242215 L18.7861551,16.0242215 L18.7861551,17.0231814 C18.7861551,17.561734 19.2163112,18 19.746325,18 L21.9905622,18 C22.5192958,18 22.9507322,17.561734 22.9507322,17.0231814 L22.9507322,14.5863444 C23.8712151,13.7286977 24.310973,12.5487007 24.316734,11.3706575 C24.3205747,10.3065763 23.9678722,9.24054159 23.2311018,8.40698968 L23.9998779,8.40698968 C24.3039317,8.40698968 24.5663782,8.19078715 24.6265488,7.88732216 L24.9875727,6.11146586 C25.0246993,5.92066062 24.977971,5.72204083 24.8563495,5.56965712 Z M6.59596877,3.11750582 C8.96885713,1.62749806 16.0311429,1.62749806 18.4027921,3.11750582 C18.8637396,3.40593255 19.4566519,4.57205127 20,6 L5,6 C5.54210896,4.57264231 6.13502127,3.40711462 6.59596877,3.11750582 Z M4,11.9996611 C4,10.8947636 4.89596747,10 6,10 C7.105388,10 8,10.8947636 8,11.9996611 C8,13.1045585 7.105388,14 6,14 C4.89596747,14 4,13.1045585 4,11.9996611 Z M20,14 C18.8959675,14 18,13.1045585 18,11.9996611 C18,10.8947636 18.8959675,10 20,10 C21.105388,10 22,10.8947636 22,11.9996611 C22,13.1045585 21.1040325,14 20,14 Z" id="Shape"></path>
                </g>
            </g>
        </g>
    </g>
</svg>