<?xml version="1.0" encoding="utf-8"?>
<!-- Generator: Adobe Illustrator 22.1.0, SVG Export Plug-In . SVG Version: 6.00 Build 0)  -->
<svg version="1.1" id="Capa_1" xmlns="http://www.w3.org/2000/svg" xmlns:xlink="http://www.w3.org/1999/xlink" x="0px" y="0px"
	 viewBox="0 0 495 495" style="enable-background:new 0 0 495 495;" xml:space="preserve">
<style type="text/css">
	.st0{fill:#2C528A;}
</style>
<g>
	<g>
		<g>
			<path class="st0" d="M285.3,128.1c-29.5,0-53.6-24-53.6-53.6s24-53.6,53.6-53.6s53.6,24,53.6,53.6S314.9,128.1,285.3,128.1z
				 M285.3,28.2C259.8,28.2,239,49,239,74.6s20.8,46.4,46.4,46.4s46.4-20.8,46.4-46.4S310.9,28.2,285.3,28.2z"/>
		</g>
		<g>
			<path class="st0" d="M85,483c-0.1,0-0.1,0-0.2,0c-6.1-0.1-11.7-2.5-16-6.8c-6.2-6.3-8.1-15.6-5.1-23.7l-22.6-12.7
				c-2.8-1.5-4.8-4.1-5.6-7.2c-0.9-3.1-0.5-6.3,1.1-9.1L100.2,311c1.6-2.8,4.1-4.8,7.2-5.6c3.1-0.9,6.3-0.5,9.1,1.1l30.5,17.1
				l20.9-37.2c-4.7-6.3-5.9-14.8-2.9-22.2c20.3-51,60.2-95.7,76.6-112.6c2.1-2.5,7.7-7.4,9.4-8.6c11.8-8.8,20.3-9.7,25.8-10.2
				l1.1-0.1c5.7-0.6,11.1,0.4,12,0.5c8.3,1.3,16.6,4.8,23.5,9.7c2.7,1.7,6.7,5.3,12.3,10.1c18,15.9,51.5,45.4,84.9,48.9l0,0
				c12.6,1.3,21.8,12.6,20.5,25.2c-1.2,11.8-11,20.6-22.9,20.6c-0.8,0-1.6,0-2.4-0.1c-29.1-3-51.3-10.5-70.7-24.1l5,58
				c0.8,9-1.6,17.7-6.9,25.3c9.7,15.8,35.1,58,69.9,136.5c3.1,6.9,3.2,14.6,0.5,21.6c-2.7,7.1-8,12.6-14.9,15.7
				c-3.6,1.6-7.5,2.4-11.4,2.4c-11.2,0-21.4-6.6-25.9-16.9c-25.2-56.9-45.9-95.4-59.8-118.9c-8.5,15.2-20.8,39.1-32.8,62.2
				c-12.6,24.4-24.5,47.5-31.4,59.3c-4.7,8.2-13.1,13.4-22.5,14.1c-5.6,0.4-11.2-0.9-16.1-3.7c-13.5-7.8-18.2-25.1-10.4-38.6
				c10.8-18.7,34.7-62.4,53.9-97.5c7.1-12.9,13.3-24.3,17.8-32.4c-4.8-5.9-7.7-13-8.4-20.6l-5.2-60c-12.7,18-22.3,35.2-28.7,51.2
				c-2.8,6.9-8.8,12.1-16,13.9l-29.4,50.9l-24.3,43.3l-33.6,59c5.5,8.9,4.3,20.6-3.4,28.2C96.6,480.6,91,483,85,483z M110.6,312.1
				c-0.4,0-0.9,0.1-1.3,0.2c-1.2,0.3-2.2,1.1-2.8,2.2L42.8,427c-0.6,1.1-0.8,2.4-0.4,3.6c0.3,1.2,1.1,2.2,2.2,2.8l28.6,16.1
				l-1.8,3.1c-3.4,6-2.3,13.6,2.5,18.5c2.9,3,6.8,4.6,10.9,4.6c4.1,0.1,8.1-1.5,11-4.5c5.6-5.5,6.2-14.4,1.3-20.6l-1.5-1.9
				l35.9-63.1l24.3-43.4l31.1-53.8l1.7-0.3c5.5-0.9,10.2-4.6,12.2-9.8c7.5-18.9,19.4-39.3,35.2-60.6l5.7-7.6l6.9,79.1
				c0.6,7,3.4,13.1,8.2,18.3l1.8,1.9l-1.3,2.3c-4.5,8.2-11.2,20.4-19,34.6c-19.2,35.2-43.1,78.9-53.9,97.6
				c-5.8,10.1-2.3,23,7.7,28.8c3.7,2.1,7.9,3.1,12,2.8c7-0.5,13.3-4.4,16.8-10.5c6.8-11.7,18.6-34.7,31.2-59
				c13.5-26.2,27.6-53.3,36-67.9l3.1-5.3l3.1,5.2c13.8,23,36,63.3,63.3,125c3.4,7.6,10.9,12.6,19.3,12.6c3,0,5.8-0.6,8.5-1.8
				c5.2-2.3,9.1-6.4,11.1-11.7c2-5.2,1.9-11-0.4-16.1c-36.2-81.8-62.2-123.9-70.7-137.7l-1.3-2.2l1.6-2c5.3-6.7,7.6-14.1,6.9-22.2
				l-6.5-74.3l6.6,5.2c13.3,10.7,33.7,23.4,73.5,27.5c0.6,0.1,1.1,0.1,1.7,0.1c8.1,0,14.9-6.1,15.7-14.2c0.9-8.7-5.5-16.5-14.1-17.3
				c-35.8-3.7-70.4-34.2-89-50.6c-5.2-4.5-9.2-8.1-11.4-9.5l-0.2-0.1c-6.1-4.4-13.4-7.4-20.6-8.5l-0.2,0c0,0-4.9-1-9.8-0.4l-1.2,0.1
				c-5.1,0.5-12.1,1.2-22.3,8.9l-0.3,0.2c-0.8,0.6-6.3,5.4-7.9,7.3l-0.2,0.2c-16,16.6-55.3,60.5-75.1,110.4
				c-2.3,5.7-1,12.1,3.2,16.7l1.8,1.9l-26.9,48l-36.8-20.7C112.2,312.3,111.4,312.1,110.6,312.1z"/>
		</g>
	</g>
</g>
</svg>
